<svg width="20" height="16" viewBox="0 0 20 16" fill="none" xmlns="http://www.w3.org/2000/svg">
<path fill-rule="evenodd" clip-rule="evenodd" d="M0.21934 8.28922C0.0788893 8.14859 -3.30478e-07 7.95797 -3.39166e-07 7.75922C-3.47854e-07 7.56047 0.0788893 7.36984 0.21934 7.22922L7.20634 0.229218C7.27549 0.157553 7.35822 0.10038 7.44971 0.0610301C7.54119 0.0216805 7.6396 0.000944757 7.73918 3.30403e-05C7.83876 -0.000878677 7.93753 0.0180508 8.02972 0.0557181C8.12191 0.0933853 8.20568 0.149036 8.27613 0.219422C8.34658 0.289808 8.40231 0.37352 8.44006 0.465674C8.47782 0.557829 8.49684 0.656579 8.49602 0.756163C8.4952 0.855748 8.47456 0.954172 8.4353 1.04569C8.39604 1.13721 8.33894 1.22 8.26734 1.28922L2.55934 7.00822L18.7493 6.99722C18.9483 6.99695 19.1391 7.07572 19.28 7.21618C19.4208 7.35665 19.5001 7.54731 19.5003 7.74622C19.5006 7.94513 19.4218 8.136 19.2814 8.27684C19.1409 8.41768 18.9503 8.49695 18.7513 8.49722L2.55734 8.50722L8.26834 14.2292C8.33994 14.2984 8.39704 14.3812 8.4363 14.4727C8.47556 14.5643 8.49621 14.6627 8.49702 14.7623C8.49784 14.8619 8.47882 14.9606 8.44106 15.0528C8.40331 15.1449 8.34758 15.2286 8.27713 15.299C8.20668 15.3694 8.12291 15.4251 8.03072 15.4627C7.93853 15.5004 7.83976 15.5193 7.74018 15.5184C7.6406 15.5175 7.54219 15.4968 7.45071 15.4574C7.35922 15.4181 7.27649 15.3609 7.20734 15.2892L0.21934 8.28922Z" fill="white"/>
</svg>
