<svg width="24" height="20" viewBox="0 0 24 20" fill="none" xmlns="http://www.w3.org/2000/svg">
<path d="M0.235016 9.50331C0.160519 9.56847 0.101414 9.64589 0.061086 9.73112C0.020758 9.81635 -4.02681e-07 9.90772 -3.98648e-07 10C-3.94614e-07 10.0923 0.0207581 10.1836 0.061086 10.2689C0.101414 10.3541 0.160519 10.4315 0.235016 10.4967L10.0696 19.12L21.6001 19.12C22.2366 19.12 22.847 18.8983 23.2971 18.5036C23.7472 18.1089 24 17.5736 24 17.0154L24 2.98461C24 2.42643 23.7472 1.89112 23.2971 1.49642C22.847 1.10173 22.2366 0.879996 21.6001 0.879996L10.0696 0.879997L0.235016 9.50331Z" fill="#9D9DA7"/>
<path d="M12.4801 13.36L15.8401 10L19.2001 13.36M19.2001 6.64001L15.8395 10L12.4801 6.64001" stroke="#181820" stroke-width="0.961282" stroke-linecap="round" stroke-linejoin="round"/>
</svg>
