<svg width="12" height="13" viewBox="0 0 12 13" fill="none" xmlns="http://www.w3.org/2000/svg">
<path d="M6 0.498657C2.682 0.498657 0 3.18066 0 6.49866C0 9.81666 2.682 12.4987 6 12.4987C9.318 12.4987 12 9.81666 12 6.49866C12 3.18066 9.318 0.498657 6 0.498657ZM8.58 9.07866C8.52449 9.13428 8.45856 9.17841 8.38597 9.20852C8.31339 9.23863 8.23558 9.25412 8.157 9.25412C8.07842 9.25412 8.00061 9.23863 7.92803 9.20852C7.85544 9.17841 7.78951 9.13428 7.734 9.07866L6 7.34466L4.266 9.07866C4.15381 9.19084 4.00166 9.25387 3.843 9.25387C3.68434 9.25387 3.53219 9.19084 3.42 9.07866C3.30781 8.96647 3.24479 8.81431 3.24479 8.65566C3.24479 8.5771 3.26026 8.49931 3.29032 8.42673C3.32039 8.35415 3.36445 8.28821 3.42 8.23266L5.154 6.49866L3.42 4.76466C3.30781 4.65247 3.24479 4.50031 3.24479 4.34166C3.24479 4.183 3.30781 4.03084 3.42 3.91866C3.53219 3.80647 3.68434 3.74345 3.843 3.74345C4.00166 3.74345 4.15381 3.80647 4.266 3.91866L6 5.65266L7.734 3.91866C7.78955 3.86311 7.8555 3.81904 7.92807 3.78898C8.00065 3.75892 8.07844 3.74345 8.157 3.74345C8.23556 3.74345 8.31335 3.75892 8.38593 3.78898C8.4585 3.81904 8.52445 3.86311 8.58 3.91866C8.63555 3.97421 8.67961 4.04015 8.70968 4.11273C8.73974 4.18531 8.75521 4.2631 8.75521 4.34166C8.75521 4.42022 8.73974 4.498 8.70968 4.57058C8.67961 4.64316 8.63555 4.70911 8.58 4.76466L6.846 6.49866L8.58 8.23266C8.808 8.46066 8.808 8.84466 8.58 9.07866Z" fill="#EE5A34"/>
</svg>
