<svg width="49" height="49" viewBox="0 0 49 49" fill="none" xmlns="http://www.w3.org/2000/svg">
<circle cx="24.2363" cy="24.2363" r="23.8851" fill="#2A3024" stroke="#3A3D32" stroke-width="0.702502"/>
<path d="M17.2363 32C17.2363 32.5304 17.447 33.0391 17.8221 33.4142C18.1972 33.7893 18.7059 34 19.2363 34L21.7363 34C22.0015 34 22.2559 33.8946 22.4434 33.7071C22.631 33.5196 22.7363 33.2652 22.7363 33C22.7363 32.6022 22.8944 32.2206 23.1757 31.9393C23.457 31.658 23.8385 31.5 24.2363 31.5C24.6342 31.5 25.0157 31.658 25.297 31.9393C25.5783 32.2206 25.7363 32.6022 25.7363 33C25.7363 33.2652 25.8417 33.5196 26.0292 33.7071C26.2168 33.8946 26.4711 34 26.7363 34L29.2363 34C29.7668 34 30.2755 33.7893 30.6505 33.4142C31.0256 33.0391 31.2363 32.5304 31.2363 32L31.2363 16C31.2363 15.4696 31.0256 14.9609 30.6505 14.5858C30.2755 14.2107 29.7668 14 29.2363 14L26.7363 14C26.4711 14 26.2168 14.1054 26.0292 14.2929C25.8417 14.4804 25.7363 14.7348 25.7363 15C25.7363 15.3978 25.5783 15.7794 25.297 16.0607C25.0157 16.342 24.6342 16.5 24.2363 16.5C23.8385 16.5 23.457 16.342 23.1757 16.0607C22.8944 15.7794 22.7363 15.3978 22.7363 15C22.7363 14.7348 22.631 14.4804 22.4434 14.2929C22.2559 14.1054 22.0015 14 21.7363 14L19.2363 14C18.7059 14 18.1972 14.2107 17.8221 14.5858C17.447 14.9609 17.2363 15.4696 17.2363 16L17.2363 32Z" fill="#D4FE4E"/>
</svg>
