<svg width="13" height="10" viewBox="0 0 13 10" fill="none" xmlns="http://www.w3.org/2000/svg">
<path d="M6.5 0C8.14192 0 9.54265 0.822204 10.5886 1.72232C11.6413 2.62658 12.4013 3.66594 12.7743 4.22789C12.9215 4.44852 13 4.70779 13 4.97301C13 5.23822 12.9215 5.4975 12.7743 5.71813C12.4013 6.28008 11.6413 7.31944 10.5886 8.2237C9.54182 9.12381 8.14192 9.94602 6.5 9.94602C4.85808 9.94602 3.45735 9.12381 2.41136 8.2237C1.35874 7.31861 0.598697 6.27925 0.225721 5.7173C0.0785429 5.49667 0 5.2374 0 4.97218C0 4.70696 0.0785429 4.44769 0.225721 4.22706C0.598697 3.66594 1.35874 2.62658 2.41136 1.72232C3.45818 0.822204 4.85808 0 6.5 0ZM1.26094 4.91665C1.24953 4.93323 1.24343 4.95288 1.24343 4.97301C1.24343 4.99313 1.24953 5.01279 1.26094 5.02937C1.60159 5.5449 2.28952 6.47983 3.22196 7.28131C4.15937 8.08777 5.27913 8.70277 6.5 8.70277C7.72087 8.70277 8.84146 8.08777 9.77804 7.28131C10.7097 6.47983 11.3976 5.54408 11.7391 5.02937C11.7505 5.01279 11.7566 4.99313 11.7566 4.97301C11.7566 4.95288 11.7505 4.93323 11.7391 4.91665C11.3976 4.40194 10.7097 3.46619 9.77804 2.6647C8.84063 1.85825 7.72087 1.24325 6.5 1.24325C5.27913 1.24325 4.15854 1.85825 3.22196 2.6647C2.29035 3.46619 1.60242 4.40194 1.26094 4.91665ZM6.5 6.63068C6.27925 6.63567 6.05973 6.59651 5.85432 6.51549C5.64891 6.43448 5.46176 6.31324 5.30385 6.1589C5.14594 6.00456 5.02046 5.82023 4.93477 5.61673C4.84908 5.41323 4.80491 5.19465 4.80485 4.97385C4.8048 4.75304 4.84886 4.53445 4.93445 4.3309C5.02003 4.12736 5.14542 3.94296 5.30326 3.78854C5.46109 3.63412 5.64818 3.51279 5.85355 3.43168C6.05891 3.35056 6.27842 3.31129 6.49917 3.31617C6.93229 3.32575 7.34445 3.5045 7.64741 3.81416C7.95038 4.12383 8.12008 4.5398 8.12019 4.97302C8.1203 5.40624 7.95081 5.82229 7.64799 6.13211C7.34518 6.44192 6.93311 6.62088 6.5 6.63068Z" fill="#A1A1AB"/>
</svg>
