<svg width="29" height="34" viewBox="0 0 29 34" fill="none" xmlns="http://www.w3.org/2000/svg">
<path d="M23.8723 4.85963C23.7434 4.85963 23.6144 4.82738 23.5015 4.76289C20.406 3.16674 17.7296 2.48959 14.505 2.48959C11.3289 2.48959 8.2978 3.24736 5.54082 4.76289C5.15387 4.97249 4.67019 4.82738 4.44447 4.44044C4.34392 4.25188 4.32137 4.03139 4.38167 3.82637C4.44196 3.62136 4.5803 3.44819 4.76693 3.34409C7.76575 1.68345 11.0548 0.877319 14.505 0.877319C17.9553 0.877319 20.9541 1.63509 24.2432 3.29573C24.6462 3.53757 24.7913 4.02125 24.5817 4.40819C24.5196 4.54381 24.4196 4.65857 24.2937 4.73866C24.1678 4.81875 24.0215 4.86076 23.8723 4.85963ZM0.800739 13.3241C0.639512 13.3241 0.478285 13.2757 0.333181 13.1789C0.162888 13.0511 0.0479637 12.863 0.0119873 12.6531C-0.0239891 12.4433 0.0217097 12.2276 0.139708 12.0504C1.73586 9.79318 3.76732 8.01968 6.18573 6.77823C11.2805 4.16635 17.7296 4.15023 22.8082 6.76211C25.2266 8.00356 27.2581 9.74481 28.8543 12.002C29.1122 12.3567 29.0155 12.8726 28.6608 13.1306C28.29 13.3885 27.7902 13.3079 27.5322 12.9694C26.1305 10.9533 24.2532 9.31415 22.0666 8.19703C17.4394 5.82699 11.5223 5.82699 6.91125 8.21315C4.71856 9.34174 2.88057 10.954 1.42953 12.9694C1.30054 13.2112 1.0587 13.3241 0.800739 13.3241ZM10.8774 32.7842C10.6678 32.7842 10.4744 32.7035 10.3131 32.5423C8.91046 31.1396 8.1527 30.2368 7.07247 28.2859C5.96001 26.3028 5.37959 23.8844 5.37959 21.2887C5.37959 16.5002 9.47476 12.5985 14.505 12.5985C19.5353 12.5985 23.6305 16.5002 23.6305 21.2887C23.6305 21.5025 23.5456 21.7075 23.3944 21.8587C23.2432 22.0099 23.0382 22.0948 22.8244 22.0948C22.6106 22.0948 22.4055 22.0099 22.2543 21.8587C22.1032 21.7075 22.0182 21.5025 22.0182 21.2887C22.0182 17.387 18.6486 14.2108 14.505 14.2108C10.3615 14.2108 6.99186 17.387 6.99186 21.2887C6.99186 23.6103 7.50779 25.7547 8.49127 27.4798C9.52313 29.35 10.2325 30.14 11.474 31.3976C11.7803 31.7201 11.7803 32.2199 11.474 32.5423C11.2805 32.7035 11.087 32.7842 10.8774 32.7842ZM22.4374 29.8015C20.5188 29.8015 18.8259 29.3178 17.4394 28.3665C15.0371 26.7381 13.6022 24.094 13.6022 21.2887C13.6022 21.0749 13.6871 20.8698 13.8383 20.7186C13.9895 20.5675 14.1945 20.4825 14.4083 20.4825C14.6221 20.4825 14.8272 20.5675 14.9783 20.7186C15.1295 20.8698 15.2144 21.0749 15.2144 21.2887C15.2144 23.562 16.3753 25.7063 18.3422 27.0284C19.487 27.8022 20.8251 28.1731 22.4374 28.1731C22.8244 28.1731 23.4693 28.1247 24.1142 28.0118C24.5495 27.9312 24.9848 28.2214 25.0493 28.6729C25.1299 29.0921 24.8397 29.5274 24.3883 29.608C23.4693 29.7853 22.6631 29.8015 22.4374 29.8015ZM19.1968 33.1227H18.9872C16.4236 32.3811 14.7469 31.4299 12.9895 29.7047C11.8746 28.6061 10.9908 27.2955 10.3899 25.8502C9.7891 24.4048 9.48342 22.8539 9.49088 21.2887C9.49088 18.6768 11.7158 16.5486 14.4567 16.5486C17.1975 16.5486 19.4225 18.6768 19.4225 21.2887C19.4225 23.0138 20.9541 24.4165 22.776 24.4165C24.6301 24.4165 26.1295 23.0138 26.1295 21.2887C26.1295 15.2104 20.8896 10.2769 14.4406 10.2769C9.8617 10.2769 5.63755 12.8242 3.78344 16.7743C3.15466 18.0803 2.8322 19.6119 2.8322 21.2887C2.8322 22.5462 2.94506 24.5293 3.91242 27.109C4.07365 27.5282 3.86405 27.9957 3.44486 28.1408C3.24585 28.2125 3.02671 28.2038 2.83403 28.1165C2.64135 28.0292 2.49031 27.8702 2.41301 27.6733C1.60688 25.5612 1.23605 23.4491 1.23605 21.2887C1.23605 19.3539 1.60687 17.5966 2.3324 16.0649C4.47672 11.5667 9.23292 8.64847 14.4406 8.64847C21.7603 8.64847 27.7418 14.3075 27.7418 21.2725C27.7418 23.8844 25.5169 26.0126 22.776 26.0126C20.0351 26.0126 17.8102 23.8844 17.8102 21.2725C17.8102 19.5474 16.3108 18.1447 14.4567 18.1447C12.6026 18.1447 11.1032 19.5474 11.1032 21.2725C11.1032 24.0295 12.1673 26.6092 14.1181 28.5439C15.6498 30.0594 17.1169 30.8978 19.3902 31.5105C19.8255 31.6395 20.0674 32.0909 19.9545 32.5101C19.8739 32.8809 19.5353 33.1227 19.1968 33.1227Z" fill="#9D9DA7"/>
</svg>
