<svg width="69" height="69" viewBox="0 0 69 69" fill="none" xmlns="http://www.w3.org/2000/svg">
<circle cx="34.5" cy="34.5" r="34" fill="#1F2428" stroke="#2C2C34"/>
<circle cx="34.5" cy="34.5" r="27.05" stroke="#372B2B" stroke-width="0.9"/>
<circle cx="35" cy="34" r="21.18" stroke="#63413D" stroke-width="1.64"/>
<path d="M34.9516 27.6621C33.0714 27.6623 31.2085 28.4704 31.4044 30.0851L31.8844 33.5949C31.9686 34.2124 32.386 35.2 33.0092 35.2H33.0536L33.5641 41.0875C33.5862 41.3524 33.7782 41.5675 34.0441 41.5675H35.9641C36.23 41.5675 36.422 41.3524 36.4441 41.0875L36.9546 35.2H36.9992C37.6225 35.2 38.0396 34.2124 38.1241 33.5951L38.6041 30.0849C38.7299 28.469 36.832 27.6616 34.9516 27.6621Z" fill="#E15D2E"/>
<path d="M35.0057 34.2179L34.9941 34.2481C34.998 34.239 35.0006 34.2297 35.0045 34.2205L35.0057 34.2179Z" fill="#E15D2E"/>
<path d="M35 27.04C36.3918 27.04 37.52 25.9118 37.52 24.52C37.52 23.1282 36.3918 22 35 22C33.6083 22 32.48 23.1282 32.48 24.52C32.48 25.9118 33.6083 27.04 35 27.04Z" fill="#E15D2E"/>
<path d="M37.6213 38.5821C37.6009 38.8154 37.5793 39.0482 37.5589 39.2815C39.7074 39.5848 41.3 40.2731 41.48 41.1247C41.7481 42.3909 37.6059 42.9607 34.9376 42.934C32.2693 42.9071 28.2034 42.3909 28.5589 41.1244C28.7922 40.2933 30.3618 39.6187 32.4541 39.3045C32.4332 39.0705 32.4094 38.8365 32.3893 38.6027C29.6998 38.8994 27.4592 39.6297 26.564 40.5818H23.535L23 41.6913H26.1598C26.4054 42.9969 29.1423 44.1239 33.056 44.4086L32.9221 46H36.7957L36.7568 44.4088C40.6904 44.1239 43.5049 42.9969 43.8402 41.6913H47L46.5416 40.5818H43.5126C42.6622 39.6057 40.381 38.8634 37.6213 38.5821Z" fill="#E15D2E"/>
</svg>
