<svg width="27" height="19" viewBox="0 0 27 19" fill="none" xmlns="http://www.w3.org/2000/svg">
<path d="M25.572 1.05992C24.017 0.407729 22.4609 0.159599 20.9056 0.159599C15.9683 0.159198 11.0313 2.65853 6.09398 2.65853C4.85574 2.65853 3.6183 2.5014 2.38005 2.10856C2.24096 2.06447 2.10146 2.04362 1.96517 2.04362C1.2753 2.04362 0.672409 2.57756 0.672409 3.31874V16.0363C0.672409 16.5426 0.962228 17.0224 1.42762 17.2172C2.98254 17.8698 4.53866 18.1179 6.09398 18.1179C11.0313 18.1179 15.9687 15.6186 20.906 15.6186C22.1443 15.6186 23.3817 15.7757 24.6199 16.1686C24.759 16.2127 24.8985 16.2335 25.0348 16.2335C25.7247 16.2335 26.3276 15.6996 26.3276 14.9584V2.24124C26.3272 1.73456 26.0374 1.25514 25.572 1.05992ZM13.4998 12.987C11.7284 12.987 10.2929 11.2637 10.2929 9.13877C10.2929 7.01343 11.7288 5.29055 13.4998 5.29055C15.2708 5.29055 16.7066 7.01343 16.7066 9.13877C16.7066 11.2645 15.2704 12.987 13.4998 12.987Z" fill="#9B9BA7"/>
</svg>
