<svg width="21" height="22" viewBox="0 0 21 22" fill="none" xmlns="http://www.w3.org/2000/svg">
<path d="M10.9353 0.112017C10.802 0.038536 10.6522 0 10.5 0C10.3478 0 10.198 0.038536 10.0647 0.112017L1.50826 4.83217L10.5 9.79284L19.4917 4.83217L10.9353 0.112017ZM20.1207 6.54585L11.4019 11.3562V21.2775L19.6541 16.7245C19.7954 16.6466 19.9133 16.5322 19.9954 16.3933C20.0774 16.2543 20.1207 16.0958 20.1207 15.9344V6.54585ZM9.59805 21.2775V11.3562L0.879303 6.54585V15.9344C0.879271 16.0958 0.922549 16.2543 1.00462 16.3933C1.08669 16.5322 1.20455 16.6466 1.34591 16.7245L9.59805 21.2775Z" fill="#9B9BA7"/>
</svg>
