<svg width="32" height="32" viewBox="0 0 32 32" fill="none" xmlns="http://www.w3.org/2000/svg">
<circle cx="16" cy="16" r="15.21" fill="#1F2229" stroke="#2A2A32" stroke-width="1.58"/>
<path d="M11.2432 21.3334V20.6487C11.2432 19.3776 11.7481 18.1585 12.6469 17.2597C13.5458 16.3608 14.7648 15.8559 16.036 15.8559M16.036 15.8559C17.3071 15.8559 18.5261 16.3608 19.425 17.2597C20.3238 18.1585 20.8287 19.3776 20.8287 20.6487V21.3334M16.036 15.8559C16.7623 15.8559 17.4589 15.5674 17.9725 15.0537C18.4862 14.5401 18.7747 13.8435 18.7747 13.1172C18.7747 12.3908 18.4862 11.6942 17.9725 11.1806C17.4589 10.667 16.7623 10.3784 16.036 10.3784C15.3096 10.3784 14.613 10.667 14.0994 11.1806C13.5858 11.6942 13.2972 12.3908 13.2972 13.1172C13.2972 13.8435 13.5858 14.5401 14.0994 15.0537C14.613 15.5674 15.3096 15.8559 16.036 15.8559Z" stroke="#9696A2" stroke-width="1.02703" stroke-linecap="round" stroke-linejoin="round"/>
</svg>
