<svg width="23" height="24" viewBox="0 0 23 24" fill="none" xmlns="http://www.w3.org/2000/svg">
<path d="M16.8798 15.3679C18.2717 13.4686 18.8951 11.1138 18.6253 8.77458C18.3555 6.43536 17.2124 4.28427 15.4247 2.75165C13.6371 1.21903 11.3366 0.417918 8.98365 0.508582C6.63068 0.599247 4.3987 1.575 2.73426 3.24064C1.06982 4.90627 0.0956597 7.13895 0.00667914 9.49198C-0.0823014 11.845 0.720458 14.1449 2.25435 15.9315C3.78825 17.718 5.94016 18.8596 8.27957 19.1277C10.619 19.3958 12.9734 18.7707 14.8717 17.3775H14.8702C14.9124 17.435 14.9594 17.4901 15.0111 17.5428L20.5453 23.0769C20.8148 23.3467 21.1804 23.4983 21.5618 23.4984C21.9431 23.4985 22.3088 23.3472 22.5785 23.0777C22.8483 22.8081 22.9999 22.4425 23 22.0612C23.0001 21.6799 22.8488 21.3141 22.5793 21.0444L17.0451 15.5102C16.9937 15.4582 16.9385 15.4116 16.8798 15.3679ZM17.2506 9.84238C17.2506 10.8806 17.0461 11.9087 16.6488 12.8679C16.2515 13.8271 15.6692 14.6986 14.935 15.4327C14.2009 16.1669 13.3294 16.7492 12.3702 17.1465C11.411 17.5438 10.3829 17.7483 9.34469 17.7483C8.30647 17.7483 7.27841 17.5438 6.31921 17.1465C5.36002 16.7492 4.48847 16.1669 3.75434 15.4327C3.0202 14.6986 2.43785 13.8271 2.04054 12.8679C1.64323 11.9087 1.43874 10.8806 1.43874 9.84238C1.43874 7.74559 2.27168 5.73468 3.75434 4.25203C5.23699 2.76938 7.2479 1.93643 9.34469 1.93643C11.4415 1.93643 13.4524 2.76938 14.935 4.25203C16.4177 5.73468 17.2506 7.74559 17.2506 9.84238Z" fill="white"/>
</svg>
