<svg width="14" height="14" viewBox="0 0 14 14" fill="none" xmlns="http://www.w3.org/2000/svg">
<circle cx="7" cy="7" r="7" fill="#C83D12"/>
<path d="M9.46022 3.13582C9.33659 3.06703 9.20061 3.02328 9.06006 3.00708C8.91952 2.99088 8.77715 3.00254 8.64111 3.0414C8.50508 3.08026 8.37803 3.14556 8.26725 3.23356C8.15647 3.32155 8.06412 3.43053 7.99548 3.55424L5.99601 7.15253L4.85169 6.00821C4.75234 5.90534 4.6335 5.82329 4.5021 5.76685C4.3707 5.7104 4.22937 5.68069 4.08637 5.67945C3.94336 5.67821 3.80154 5.70546 3.66918 5.75961C3.53682 5.81376 3.41657 5.89374 3.31545 5.99486C3.21433 6.09598 3.13435 6.21623 3.0802 6.34859C3.02605 6.48095 2.9988 6.62277 3.00004 6.76578C3.00128 6.90878 3.03099 7.05011 3.08744 7.18151C3.14388 7.31291 3.22593 7.43175 3.3288 7.5311L5.48282 9.68512C5.68637 9.88921 5.96101 10.0012 6.24426 10.0012L6.39343 9.99045C6.55851 9.96736 6.71597 9.90627 6.85343 9.81198C6.99089 9.7177 7.10459 9.59279 7.18557 9.4471L9.8781 4.60056C9.94684 4.47694 9.99056 4.341 10.0068 4.20049C10.023 4.05998 10.0113 3.91765 9.97253 3.78164C9.93372 3.64563 9.86851 3.51859 9.78061 3.40778C9.6927 3.29697 9.58383 3.20456 9.46022 3.13582Z" fill="white"/>
</svg>
