<svg width="49" height="49" viewBox="0 0 49 49" fill="none" xmlns="http://www.w3.org/2000/svg">
<circle cx="24.2363" cy="24.2363" r="23.8851" fill="#1E2A36" stroke="#242E37" stroke-width="0.702502"/>
<path d="M15.6373 22.5773L19.6864 23.7462L24.1369 20.514L17.7498 20.6971C17.6873 20.7005 17.6267 20.7199 17.5738 20.7534L15.5528 21.9153C15.4899 21.9502 15.4389 22.0031 15.4064 22.0672C15.374 22.1313 15.3615 22.2037 15.3706 22.275C15.3797 22.3462 15.41 22.4132 15.4575 22.4671C15.505 22.521 15.5677 22.5594 15.6373 22.5773Z" fill="#51CDFF"/>
<path d="M35.3637 19.0183L30.9273 18.0606C30.5542 17.9796 30.168 17.9798 29.795 18.0612C29.422 18.1426 29.0709 18.3033 28.7654 18.5324L15.3646 28.2714L12.1465 28.1306C11.9621 28.1243 11.7805 28.1761 11.6272 28.2786C11.4739 28.3812 11.3567 28.5293 11.2921 28.702C11.2275 28.8748 11.2188 29.0635 11.2672 29.2414C11.3157 29.4194 11.4188 29.5777 11.562 29.6939L14.6957 32.1797C14.7472 32.2213 14.8087 32.249 14.874 32.2601C14.9393 32.2712 15.0064 32.2653 15.0689 32.243C15.9632 31.898 19.294 30.1305 23.2305 27.9686L24.0192 36.0739C24.0259 36.144 24.0516 36.2111 24.0936 36.2677C24.1356 36.3244 24.1922 36.3685 24.2575 36.3953C24.3227 36.4221 24.394 36.4306 24.4637 36.4199C24.5334 36.4091 24.5988 36.3796 24.6529 36.3344L26.4134 34.8697C26.5098 34.7888 26.5746 34.6767 26.5965 34.5528L28.2655 25.1941C31.0822 23.6308 33.7722 22.1167 35.6665 21.0464C35.8631 20.9394 36.0221 20.7746 36.1218 20.5743C36.2216 20.3739 36.2574 20.1478 36.2244 19.9264C36.1913 19.7051 36.091 19.4993 35.9371 19.3368C35.7831 19.1744 35.583 19.0632 35.3637 19.0183Z" fill="#51CDFF"/>
</svg>
