<svg width="38" height="42" viewBox="0 0 38 42" fill="none" xmlns="http://www.w3.org/2000/svg">
<path d="M2.23535 40V37.625C2.23535 33.2158 3.98691 28.9871 7.1047 25.8694C10.2225 22.7516 14.4511 21 18.8604 21M18.8604 21C23.2696 21 27.4982 22.7516 30.616 25.8694C33.7338 28.9871 35.4854 33.2158 35.4854 37.625V40M18.8604 21C21.3799 21 23.7963 19.9991 25.5779 18.2175C27.3595 16.4359 28.3604 14.0196 28.3604 11.5C28.3604 8.98044 27.3595 6.56408 25.5779 4.78249C23.7963 3.00089 21.3799 2 18.8604 2C16.3408 2 13.9244 3.00089 12.1428 4.78249C10.3612 6.56408 9.36035 8.98044 9.36035 11.5C9.36035 14.0196 10.3612 16.4359 12.1428 18.2175C13.9244 19.9991 16.3408 21 18.8604 21Z" stroke="#9696A2" stroke-width="3.5625" stroke-linecap="round" stroke-linejoin="round"/>
</svg>
